<svg width="40" height="40" viewBox="0 0 40 40" fill="none" xmlns="http://www.w3.org/2000/svg">
<rect width="40" height="40" rx="20" fill="#303952"/>
<path d="M26.8438 18.5169C28.0518 19.1169 28.0518 20.8839 26.8438 21.4829L14.5518 27.5839C13.3238 28.1939 12.0938 27.0909 12.2668 25.8639L12.8068 22.0339C12.8488 21.7266 12.9771 21.4375 13.1767 21.2002C13.3764 20.9628 13.6392 20.7869 13.9348 20.6929C14.0948 20.6429 14.4848 20.5599 14.9468 20.4659C15.7424 20.3051 16.5391 20.1498 17.3368 19.9999L16.7088 19.8799C16.1209 19.7676 15.5336 19.6523 14.9468 19.5339C14.6071 19.4692 14.2696 19.3935 13.9348 19.3069C13.6391 19.2129 13.3761 19.0369 13.1765 18.7993C12.9768 18.5618 12.8486 18.2724 12.8068 17.9649L12.2668 14.1349C12.0938 12.9089 13.3238 11.8059 14.5518 12.4149L26.8438 18.5169ZM26.2498 19.9999C26.2498 19.9199 26.2138 19.8779 26.1768 19.8599L13.8858 13.7599C13.8638 13.7489 13.8528 13.7499 13.8478 13.7499C13.8328 13.7534 13.8188 13.7602 13.8068 13.7699C13.7718 13.7969 13.7408 13.8479 13.7518 13.9259L14.2918 17.7559C14.3018 17.8309 14.3488 17.8659 14.3748 17.8729C14.4478 17.8959 14.7478 17.9629 15.2458 18.0629C15.7228 18.1609 16.3358 18.2809 16.9918 18.4069C18.3048 18.6589 19.7878 18.9369 20.6958 19.1049L20.7138 19.1079C20.8188 19.1279 20.9298 19.1479 21.0168 19.1699C21.0628 19.1809 21.1358 19.2009 21.2108 19.2349C21.3652 19.299 21.4957 19.4099 21.5838 19.5519C21.6673 19.6865 21.7115 19.8416 21.7115 19.9999C21.7115 20.1582 21.6673 20.3134 21.5838 20.4479C21.4957 20.59 21.3652 20.7008 21.2108 20.7649C21.1486 20.7932 21.0836 20.815 21.0168 20.8299C20.9165 20.8537 20.8154 20.8744 20.7138 20.8919L20.6958 20.8949C19.7878 21.0639 18.3058 21.3409 16.9918 21.5929C16.3348 21.7189 15.7218 21.8389 15.2458 21.9359C14.7478 22.0369 14.4478 22.1039 14.3748 22.1259C14.3488 22.1349 14.3028 22.1689 14.2918 22.2439L13.7518 26.0739C13.7418 26.1519 13.7718 26.2029 13.8068 26.2299C13.8188 26.2397 13.8328 26.2465 13.8478 26.2499C13.8528 26.2499 13.8638 26.2509 13.8858 26.2399L26.1768 20.1399C26.2138 20.1219 26.2498 20.0799 26.2498 19.9999Z" fill="white"/>
</svg>
