<svg width="40" height="40" viewBox="0 0 40 40" fill="none" xmlns="http://www.w3.org/2000/svg">
<path d="M36.5665 21.8499L34.8165 16.4833C34.8165 16.4333 34.7998 16.3833 34.7832 16.3333L31.2665 5.53325C31.1678 5.25772 30.9872 5.01899 30.7488 4.84916C30.5105 4.67933 30.2258 4.58654 29.9332 4.58325C29.3332 4.58325 28.7998 4.99992 28.6165 5.54992L25.2832 15.8333H14.7332L11.3832 5.54992C11.2903 5.27259 11.1139 5.0308 10.8782 4.85772C10.6424 4.68464 10.3589 4.58877 10.0665 4.58325C9.44984 4.58325 8.9165 4.99992 8.73317 5.54992L5.21651 16.3666V16.3833L3.43317 21.8499C3.16651 22.6833 3.44984 23.5833 4.16651 24.0833L19.5332 35.2666C19.8165 35.4666 20.1832 35.4666 20.4665 35.2499L35.8332 24.0833C36.5498 23.5833 36.8332 22.6833 36.5665 21.8499ZM13.5832 17.4166L17.8665 30.5999L7.58317 17.4166M22.1332 30.6166L26.2498 17.9666L26.4165 17.4166H32.4332L23.1165 29.3499M29.9498 6.56659L32.9665 15.8333H26.9332M24.7665 17.4166L21.7832 26.5999L19.9998 32.0666L15.2332 17.4166M10.0498 6.56659L13.0665 15.8333H7.04984M5.08317 22.8166C4.93317 22.6999 4.86651 22.4999 4.93317 22.3333L6.24984 18.2833L15.9498 30.6999M34.9165 22.8166L24.0665 30.6999L24.0998 30.6499L33.7498 18.2833L35.0665 22.3333C35.1332 22.4999 35.0665 22.6999 34.9165 22.8166Z" fill="#303952"/>
</svg>
